<svg xmlns="http://www.w3.org/2000/svg" viewBox="0 0 34.45 28"><title>twitter</title><path fill="#888" d="M10.84,28C23.84,28,31,17.23,31,7.89c0-.31,0-.61,0-.92a14.09,14.09,0,0,0,3.52-3.66,13.8,13.8,0,0,1-4.06,1.12A7.12,7.12,0,0,0,33.5.52,13.94,13.94,0,0,1,29,2.23,7.07,7.07,0,0,0,16.78,7.07,7.16,7.16,0,0,0,17,8.68,20.06,20.06,0,0,1,2.4,1.29a7.07,7.07,0,0,0,2.19,9.44,7,7,0,0,1-3.21-.88v.09a7.08,7.08,0,0,0,5.67,6.93,7.08,7.08,0,0,1-1.86.25A7.31,7.31,0,0,1,3.86,17a7.08,7.08,0,0,0,6.61,4.91,14.22,14.22,0,0,1-8.78,3A15.67,15.67,0,0,1,0,24.83,20,20,0,0,0,10.84,28"/></svg>